<?xml version="1.0" encoding="UTF-8" standalone="no"?>
<!-- Created with Inkscape (http://www.inkscape.org/) -->

<svg
   xmlns:dc="http://purl.org/dc/elements/1.1/"
   xmlns:cc="http://creativecommons.org/ns#"
   xmlns:rdf="http://www.w3.org/1999/02/22-rdf-syntax-ns#"
   xmlns:svg="http://www.w3.org/2000/svg"
   xmlns="http://www.w3.org/2000/svg"
   xmlns:sodipodi="http://sodipodi.sourceforge.net/DTD/sodipodi-0.dtd"
   xmlns:inkscape="http://www.inkscape.org/namespaces/inkscape"
   width="292.78198mm"
   height="74.975136mm"
   viewBox="0 0 1037.4165 265.65994"
   id="svg4205"
   version="1.1"
   inkscape:version="0.91 r13725"
   sodipodi:docname="logo_original.svg"
   inkscape:export-filename="C:\Users\erich\Desktop\Enfasse\web\images\logo_original.png"
   inkscape:export-xdpi="70.117905"
   inkscape:export-ydpi="70.117905">
  <defs
     id="defs4207" />
  <sodipodi:namedview
     id="base"
     pagecolor="#ffffff"
     bordercolor="#666666"
     borderopacity="1.0"
     inkscape:pageopacity="0.0"
     inkscape:pageshadow="2"
     inkscape:zoom="0.49497475"
     inkscape:cx="390.58744"
     inkscape:cy="246.64402"
     inkscape:document-units="px"
     inkscape:current-layer="layer1"
     showgrid="false"
     fit-margin-top="0"
     fit-margin-left="0"
     fit-margin-right="0"
     fit-margin-bottom="0"
     inkscape:window-width="1366"
     inkscape:window-height="705"
     inkscape:window-x="-8"
     inkscape:window-y="-8"
     inkscape:window-maximized="1" />
  <metadata
     id="metadata4210">
    <rdf:RDF>
      <cc:Work
         rdf:about="">
        <dc:format>image/svg+xml</dc:format>
        <dc:type
           rdf:resource="http://purl.org/dc/dcmitype/StillImage" />
        <dc:title></dc:title>
      </cc:Work>
    </rdf:RDF>
  </metadata>
  <g
     inkscape:label="Capa 1"
     inkscape:groupmode="layer"
     id="layer1"
     transform="translate(198.70826,-728.10369)">
    <rect
       style="fill:none;fill-opacity:1;fill-rule:evenodd;stroke:#000000;stroke-width:0.82826537px;stroke-linecap:butt;stroke-linejoin:miter;stroke-opacity:1"
       id="rect4136"
       width="1036.5883"
       height="264.83167"
       x="-198.29413"
       y="728.51782" />
    <path
       inkscape:connector-curvature="0"
       id="path11-2-5-8"
       style="fill:none;stroke:#ff0000;stroke-width:5;stroke-miterlimit:4;stroke-dasharray:none;stroke-opacity:1"
       d="m 319.99948,770.53912 0,0 3.40341,2.01131 3.40359,2.07794 3.40341,2.16737 3.40347,2.25716 3.40342,2.32379 3.40341,2.36868 3.40353,2.45811 3.40347,2.52474 3.33541,2.59208 3.40347,2.65907 3.40341,2.72605 3.40347,2.77094 3.33535,2.81548 3.40347,2.88282 3.33541,2.92701 3.40341,2.97189 3.33552,3.01679 3.33529,3.08377 3.3354,3.08342 3.33535,3.15076 3.33541,3.1732 3.33534,3.1953 3.33541,3.24019 3.33535,3.26228 3.26733,3.28473 3.26728,3.28473 3.33541,3.32962 3.26734,3.32962 3.26728,3.32927 3.26728,3.35171 3.19927,3.35171 3.26728,3.35207 3.19932,3.35171 3.19922,3.32962 3.19916,3.35171 3.19932,3.30717 3.19922,3.32927 3.19926,3.28473 3.13117,3.28508 3.1312,3.23984 3.1311,3.24019 3.1312,3.19529 3.0631,3.17321 3.1312,3.12831 3.0631,3.10587 3.0631,3.03888 2.995,3.01679 3.0632,2.97189 2.995,2.92736 2.9951,2.86002 2.995,2.83793 2.9269,2.74849 2.9951,2.70361 2.9269,2.63697 2.8589,2.59208 2.9271,2.50265 2.8588,2.45811 2.8589,2.36833 2.8589,2.30169 2.7908,2.23436 2.7909,2.16773 2.7907,2.05585 2.7909,2.01095 2.7227,1.92153 2.7228,1.83245 2.7228,1.74302 2.6547,1.65358 2.6547,1.56416 2.6547,1.49717 2.5866,1.38529 2.5866,1.29622 2.5866,1.20644 2.5187,1.11735 2.5185,1.02792 2.5185,0.91605 2.5186,0.82697 2.45046,0.71509 2.3823,0.62567 2.4505,0.53623 2.3825,0.42435 2.3144,0.33668 2.3823,0.22446 2.3144,0.13327 2.2463,0.0351 2.2462,-0.0666 2.2463,-0.17886 2.2463,-0.26654 2.1782,-0.37981 2.1102,-0.46925 2.1781,-0.58077 2.1102,-0.67055 2.04212,-0.75964 2.042,-0.87151 2.0421,-0.96094 1.974,-1.07246 1.9741,-1.1398 1.9059,-1.25132 1.9059,-1.34076 1.9059,-1.42983 1.8379,-1.54207 1.8379,-1.60869 1.8378,-1.69848 1.7018,-1.78756 1.7697,-1.85454 1.7017,-1.96642 1.7018,-2.0334 1.6336,-2.10039 1.6337,-2.18982 1.5656,-2.27925 1.5656,-2.32414 1.4975,-2.41322 1.5655,-2.4802 1.4296,-2.54754 1.4294,-2.59208 1.4294,-2.68151 1.3614,-2.72605 1.3614,-2.79304 1.2933,-2.83793 1.2933,-2.88246 1.2253,-2.9498 1.2252,-2.994 1.1572,-3.03923 1.1572,-3.06133 1.1572,-3.12831 1.089,-3.15076 1.0211,-3.17285 1.0891,-3.21774 0.953,-3.24019 0.9529,-3.26228 0.9529,-3.28473 0.8849,-3.30717 0.885,-3.30718 0.8168,-3.32962 0.7488,-3.35171 0.8168,-3.35171 0.6806,-3.35172 0.7489,-3.35206 0.6124,-3.35171 0.6807,-3.32962 0.5443,-3.32927 0.6124,-3.32927 0.4758,-3.30717 0.5449,-3.28508 0.408,-3.28473 0.4758,-3.23984 0.3401,-3.21774 0.4079,-3.19565 0.2722,-3.15041 0.3401,-3.12831 0.2042,-3.08377 0.2722,-3.03923 0.2042,-3.01644 0.1358,-2.94945 0.1358,-2.90491 0.068,-2.86038 0.068,-2.79303 0,-2.7485 0,-2.68151 -0.068,-2.63662 -0.068,-2.56998 -0.1358,-2.48021 -0.1358,-2.43566 -0.2042,-2.34624 -0.2043,-2.30169 -0.2721,-2.18982 -0.2722,-2.14493 -0.3401,-2.05585 -0.34,-1.96642 -0.3401,-1.89943 -0.4758,-1.81 -0.408,-1.72057 -0.5443,-1.63115 -0.4759,-1.54171 -0.5443,-1.47507 -0.6124,-1.36285 -0.6124,-1.27377 -0.6807,-1.18434 -0.6807,-1.07247 -0.7488,-0.98338 -0.7487,-0.8936 -0.7488,-0.80453 -0.8168,-0.69265 -0.8848,-0.60356 -0.885,-0.51379 -0.953,-0.40226 -0.9529,-0.29109 -0.9529,-0.1999 -1.0211,-0.0877 -1.0891,0 -1.021,0.0877 -1.1573,0.1999 -1.1571,0.31213 -1.1572,0.40226 -1.2252,0.49169 -1.2252,0.60322 -1.2933,0.69265 -1.2934,0.80452 -1.3614,0.89396 -1.3613,0.98303 -1.4295,1.09491 -1.4295,1.18434 -1.4293,1.27377 -1.4975,1.36285 -1.4976,1.45263 -1.5656,1.54171 -1.5656,1.65359 -1.6336,1.72057 -1.6337,1.81 -1.7017,1.89944 -1.7017,1.96641 -1.7018,2.05585 -1.7698,2.12249 -1.8378,2.21226 -1.7698,2.30169 -1.906,2.34624 -1.8378,2.43566 -1.906,2.48021 -1.9059,2.56998 -1.974,2.63662 -2.0421,2.68151 -1.9739,2.7485 -2.0421,2.79304 -2.11012,2.86037 -2.0421,2.90491 -2.1782,2.94945 -2.1101,3.01679 -2.1782,3.03888 -2.2464,3.08342 -2.1782,3.12867 -2.2462,3.1504 -2.3144,3.19565 -2.3144,3.21775 -2.3143,3.26228 -2.3824,3.26228 -2.3824,3.28508 -2.3825,3.30682 -2.4505,3.32962 -2.45036,3.32962 -2.4505,3.35171 -2.5186,3.35172 -2.5185,3.35171 -2.5185,3.35206 -2.5867,3.32927 -2.5866,3.35172 -2.5866,3.32961 -2.6548,3.32962 -2.6547,3.28473 -2.6546,3.28473 -2.7229,3.28473 -2.7227,3.24019 -2.7227,3.19529 -2.7227,3.1953 -2.791,3.15076 -2.7907,3.10587 -2.8589,3.08377 -2.7909,3.01679 -2.8589,2.99399 -2.8589,2.9498 -2.927,2.88247 -2.8588,2.83792 -2.927,2.79304 -2.9951,2.72605 -2.9269,2.68151 -2.995,2.59208 -2.9951,2.54754 -2.995,2.48021 -2.9951,2.41322 -3.0632,2.32414 -3.0629,2.27925 -3.0631,2.18981 -3.0632,2.10039 -3.1312,2.03341 -3.1312,1.94397 -3.1312,1.87699 -3.1311,1.78755 -3.13121,1.69848 -3.19921,1.6087 -3.13115,1.51961 -3.19932,1.43019 -3.19916,1.34075 -3.19921,1.25133 -3.2674,1.16189 -3.19921,1.05002 -3.26734,0.96094 -3.26728,0.87151 -3.26733,0.75963 -3.26734,0.67056 -3.26728,0.58077 -3.26728,0.46924 -3.33541,0.38017 -3.26728,0.26654 -3.3354,0.17886 -3.3353,0.0666 -3.3354,-0.0351 -3.33535,-0.13326 -3.3354,-0.22446 -3.33541,-0.33668 -3.40352,-0.4247 -3.33541,-0.53624 -3.33534,-0.62566 -3.40342,-0.73754 -3.40342,-0.82662 -3.33546,-0.91604 -3.40347,-1.00583 -3.40341,-1.11701 -3.33541,-1.20678 -3.40341,-1.29622 -3.40347,-1.40774 -3.40347,-1.47472 -3.40342,-1.58661 -3.40358,-1.65323 -3.40342,-1.74302 -3.40347,-1.83245 -3.40341,-1.92152 -3.40342,-1.98887 -3.40347,-2.07829 -3.40347,-2.16737 -3.40342,-2.23436 -3.40347,-2.3017 -3.40347,-2.36868 -3.40347,-2.45776 -3.40342,-2.503 -3.33534,-2.59208 -3.40353,-2.63662 -3.40342,-2.7036 -3.40347,-2.77095 -3.33524,-2.81548 -3.40341,-2.86037 -3.33546,-2.927 -3.40342,-2.97225 -3.33534,-3.01644 -3.33541,-3.06133 -3.33535,-3.08377 -3.40341,-3.12831 -3.33541,-3.17285 -3.26733,-3.19565 -3.3353,-3.23984 -3.3354,-3.24019 -3.26734,-3.28473 -3.3354,-3.30717 -3.26734,-3.30717 -3.26739,-3.32927 -3.26722,-3.32962 -3.26734,-3.35171 -3.26728,-3.35172 -3.19927,-3.35206 -3.26723,-3.35171 -3.19932,-3.32927 -3.19927,-3.35207 -3.19933,-3.32926 -3.19921,-3.30718 -3.13115,-3.30717 -3.19932,-3.28473 -3.13115,-3.24019 -3.13109,-3.24019 -3.1312,-3.19529 -3.06308,-3.17286 -3.06308,-3.15075 -3.13126,-3.10622 -3.06308,-3.06098 -2.99501,-3.01679 -3.06308,-2.97189 -2.99501,-2.92736 -2.99513,-2.88247 -2.99512,-2.83792 -2.927,-2.77094 -2.99496,-2.70361 -2.927,-2.65906 -2.927,-2.59209 -2.85882,-2.52509 -2.85899,-2.45811 -2.85888,-2.36833 -2.85888,-2.32414 -2.85893,-2.23436 -2.79081,-2.16772 -2.79081,-2.10039 -2.72286,-2.01096 -2.7907,-1.92188 -2.7228,-1.85454 -2.65473,-1.76546 -2.72269,-1.65359 -2.65467,-1.58625 -2.65473,-1.49717 -2.58661,-1.40774 -2.586609,-1.31831 -2.58661,-1.22923 -2.5186,-1.11701 -2.58666,-1.05036 -2.45042,-0.91605 -2.51855,-0.84942 -2.45052,-0.73718 -2.45047,-0.64811 -2.38241,-0.53623 -2.38241,-0.44681 -2.38246,-0.35772 -2.31434,-0.24549 -2.31434,-0.13327 -2.31434,-0.0456 -2.24627,0.0666 -2.24628,0.15782 -2.24627,0.24549 -2.17826,0.35773 -2.11014,0.46889 -2.17821,0.55868 -2.11008,0.64811 -2.04213,0.75998 -2.04207,0.84906 -2.04207,0.9385 -1.97395,1.05002 -1.97411,1.1398 -1.97395,1.22888 -1.90588,1.34075 -1.90594,1.40774 -1.83793,1.51962 -1.83787,1.5866 -1.76974,1.67568 -1.76981,1.78756 -1.7698,1.85489 -1.70174,1.94397 -1.70173,2.01096 -1.63361,2.10039 -1.63367,2.16772 -1.5656,2.25681 -1.5656,2.32379 -1.56561,2.41357 -1.49747,2.45776 -1.49759,2.52509 -1.42936,2.61453 -1.4295198,2.65906 -1.36135,2.70361 -1.36145,2.79339 -1.29322,2.81548 -1.29333,2.90491 -1.22527,2.92736 -1.22526,2.97189 -1.22520998,3.03889 -1.15715,3.06132 -1.08913002,3.10587 -1.08913,3.15076 -1.08907,3.1732 -1.02107,3.21774 -1.021,3.23984 -0.95295,3.24019 -0.95299,3.28473 -0.88482,3.30717 -0.88493,3.32927 -0.8168602,3.32962 -0.81686,3.32962 -0.7488,3.35171 -0.74868,3.35171 -0.68073,3.35172 -0.68067,3.35206 -0.61244,3.32927 -0.61244,3.35206 -0.54431,3.30683 -0.54432,3.32961 -0.47585,3.28473 -0.47586,3.26228 -0.47586,3.26264 -0.34006,3.21774 -0.40796,3.1953 -0.34005,3.1732 -0.27216,3.12831 -0.27216,3.08343 -0.20426,3.06132 -0.20425,3.01679 -0.20426,2.94945 -0.0679,2.92736 -0.1358,2.86002 -0.0679,2.81583 0,2.74815 0,2.70395 0.0679,2.61453 0.0679,2.59208 0.1358,2.50265 0.1358,2.43567 0.1358,2.36833 0.20426,2.30169 0.27215,2.21226 0.27216,2.14528 0.34006,2.0555 0.34006,1.98886 0.40796,1.92188 0.40795,1.80965 0.40796,1.74302 0.47586,1.65359 0.54431,1.56415 0.54432,1.47473 0.61244,1.3632 0.61243,1.29586 0.61239,1.18434 0.68067,1.11736 0.74874,1.00548 0.74879,0.89395 0.74869,0.82662 0.8169102,0.71509 0.88493,0.60357 0.88488,0.51379 0.88493,0.4247 0.95294,0.31213 1.02095,0.22446 1.02106,0.11222 1.02101,0.0351 1.08908,-0.0877 1.08918,-0.17886 1.15720002,-0.29109 1.15719998,-0.37982 1.22521,-0.49169 1.22521,-0.58112 1.29333,-0.69265 1.29328,-0.78208 1.36145,-0.87151 1.36135,-0.98303 1.3613398,-1.07281 1.42947,-1.1619 1.49747,-1.25132 1.42947,-1.36285 1.56571,-1.45264 1.56549,-1.51961 1.56555,-1.63114 1.56566,-1.69813 1.63361,-1.81 1.70168,-1.87699 1.70185,-1.96642 1.70162,-2.0334 1.7698,-2.12283 1.76975,-2.18982 1.83793,-2.27925 1.83787,-2.34624 1.90593,-2.41322 1.90588,-2.48055 1.90594,-2.56964 1.97412,-2.61452 1.97395,-2.65907 1.974,-2.74849 2.04207,-2.79304 2.11009,-2.83793 2.04212,-2.90491 2.17821,-2.94945 2.11014,-2.99434 2.1782,-3.03888 2.17826,-3.08378 2.24628,-3.12831 2.24633,-3.15076 2.31428,-3.17285 2.24633,-3.21774 2.38241,-3.24019 2.31428,-3.28473 2.38247,-3.28473 2.38246,-3.30717 2.45036,-3.30717 2.45047,-3.32962 2.45058,-3.35172 2.51854,-3.35171 2.51849,-3.35171 2.5186,-3.35207 2.58666,-3.35171 2.58656,-3.32927 2.586659,-3.32962 2.65468,-3.32962 2.65473,-3.30682 2.65462,-3.28473 2.65479,-3.26263 2.72269,-3.26228 2.7228,-3.19565 2.7907,-3.1953 2.79097,-3.15076 2.79081,-3.12831 2.79076,-3.08342 2.85899,-3.03923 2.79075,-2.99435 2.92695,-2.94945 2.85893,-2.90491 2.927,-2.83793 2.92689,-2.79303 2.92706,-2.7485 2.92694,-2.68151 2.99507,-2.61417 2.99507,-2.54754 2.99507,-2.50265 2.99501,-2.41322 3.06319,-2.34624 3.06308,-2.27925 3.06302,-2.19017 3.06314,-2.12248 3.13115,-2.05585 3.06313,-1.96642 3.13126,-1.87698 3.13115,-1.78756 3.19921,-1.72092 3.1312,-1.63115 3.19916,-1.54171 3.19933,-1.43018 3.19927,-1.36285 3.19926,-1.25133 3.19927,-1.18434 3.26729,-1.07281 3.19927,-0.98304 3.26733,-0.8715 3.26728,-0.78208 3.26734,-0.69265 3.26728,-0.58112 3.33535,-0.49169 3.26739,-0.37982 3.33535,-0.29109 3.26728,-0.1999 3.33541,-0.0877 3.3354,0.0351 3.33535,0.11223 3.3354,0.22445 3.33541,0.31213 3.40347,0.40226 3.33523,0.51414 3.40342,0.60322 3.3354,0.71509 3.40342,0.80452 3.33535,0.91605 3.40347,1.00548 3.40341,1.09491 3.40347,1.18434 3.33541,1.29622 3.40347,1.38529 3.40342,1.45228 3.40347,1.56416 3.40347,1.65358 3.40336,1.72058 3.40341,1.83244 5.17124,2.90959"
       sodipodi:nodetypes="cccccccccccccccccccccccccccccccccccccccccccccccccccccccccccccccccccccccccccccccccccccccccccccccccccccccccccccccccccccccccccccccccccccccccccccccccccccccccccccccccccccccccccccccccccccccccccccccccccccccccccccccccccccccccccccccccccccccccccccccccccccccccccccccccccccccccccccccccccccccccccccccccccccccccccccccccccccccccccccccccccccccccccccccccccccccccccccccccccccccccccccccccccccccccccccccccccccccccccccccccccccccccccccccccccccccccccccccccccccccccccccccccccccccccccccccccccccccccccccccccccccccccccccccccccccccccccccccccccccccccccccccccccccccccccccccccccccccccccccccccccccccccccccccccccccccccccccccccccccccccccccccccccccccccccccccccccccc" />
    <text
       xml:space="preserve"
       style="font-style:normal;font-variant:normal;font-weight:normal;font-stretch:normal;font-size:139.57945251px;line-height:500%;font-family:SWIsot3;-inkscape-font-specification:SWIsot3;letter-spacing:0px;word-spacing:0px;fill:#000000;fill-opacity:1;stroke:#ffffff;stroke-width:1px;stroke-linecap:butt;stroke-linejoin:miter;stroke-opacity:1"
       x="-153.13268"
       y="1261.9261"
       id="text4439-4-8-6"
       sodipodi:linespacing="500%"
       transform="scale(1.4091371,0.70965416)"><tspan
         sodipodi:role="line"
         id="tspan4441-6-7-0"
         x="-153.13268"
         y="1261.9261">ENFASSE</tspan></text>
  </g>
</svg>
