<?xml version="1.0" encoding="UTF-8" standalone="no"?>
<!-- Created with Inkscape (http://www.inkscape.org/) -->

<svg
   xmlns:dc="http://purl.org/dc/elements/1.1/"
   xmlns:cc="http://creativecommons.org/ns#"
   xmlns:rdf="http://www.w3.org/1999/02/22-rdf-syntax-ns#"
   xmlns:svg="http://www.w3.org/2000/svg"
   xmlns="http://www.w3.org/2000/svg"
   xmlns:xlink="http://www.w3.org/1999/xlink"
   xmlns:sodipodi="http://sodipodi.sourceforge.net/DTD/sodipodi-0.dtd"
   xmlns:inkscape="http://www.inkscape.org/namespaces/inkscape"
   width="131.61426mm"
   height="29.725185mm"
   viewBox="0 0 466.34973 105.32546"
   id="svg6347"
   version="1.1"
   inkscape:version="0.91 r13725"
   sodipodi:docname="logo_old.svg">
  <defs
     id="defs6349">
    <linearGradient
       id="linearGradient4374"
       inkscape:collect="always">
      <stop
         style="stop-color:#fef63f;stop-opacity:1"
         offset="0"
         id="stop4376" />
      <stop
         id="stop4378"
         offset="0.06786997"
         style="stop-color:#ede103;stop-opacity:1" />
      <stop
         style="stop-color:#bebe00;stop-opacity:0.83921569;"
         offset="0.11884505"
         id="stop4386" />
      <stop
         style="stop-color:#666666;stop-opacity:1"
         offset="0.23562674"
         id="stop4384" />
      <stop
         style="stop-color:#000000;stop-opacity:1;"
         offset="1"
         id="stop4380" />
    </linearGradient>
    <linearGradient
       inkscape:collect="always"
       xlink:href="#linearGradient4374"
       id="linearGradient4848-3"
       x1="320.17303"
       y1="832.84546"
       x2="320.42535"
       y2="886.68591"
       gradientUnits="userSpaceOnUse"
       spreadMethod="reflect"
       gradientTransform="matrix(1.0008078,0,0,0.99919285,-79.192718,-1011.543)" />
    <filter
       inkscape:collect="always"
       style="color-interpolation-filters:sRGB"
       id="filter7858"
       x="-0.028014639"
       width="1.0560293"
       y="-0.16815175"
       height="1.3363035">
      <feGaussianBlur
         inkscape:collect="always"
         stdDeviation="5.050134"
         id="feGaussianBlur7860" />
    </filter>
    <filter
       inkscape:collect="always"
       style="color-interpolation-filters:sRGB"
       id="filter7882"
       x="-0.038520128"
       width="1.0770403"
       y="-0.23120867"
       height="1.4624172">
      <feGaussianBlur
         inkscape:collect="always"
         stdDeviation="6.9439343"
         id="feGaussianBlur7884" />
    </filter>
    <filter
       inkscape:collect="always"
       style="color-interpolation-filters:sRGB"
       id="filter4410"
       x="-0.01400732"
       width="1.0280145"
       y="-0.084075876"
       height="1.1681519">
      <feGaussianBlur
         inkscape:collect="always"
         stdDeviation="2.525067"
         id="feGaussianBlur4412" />
    </filter>
  </defs>
  <sodipodi:namedview
     id="base"
     pagecolor="#ffffff"
     bordercolor="#666666"
     borderopacity="1.0"
     inkscape:pageopacity="0.0"
     inkscape:pageshadow="2"
     inkscape:zoom="0.98994949"
     inkscape:cx="164.57514"
     inkscape:cy="67.434619"
     inkscape:document-units="px"
     inkscape:current-layer="layer1"
     showgrid="false"
     fit-margin-top="0"
     fit-margin-left="0"
     fit-margin-right="0"
     fit-margin-bottom="0"
     inkscape:window-width="1366"
     inkscape:window-height="705"
     inkscape:window-x="-8"
     inkscape:window-y="-8"
     inkscape:window-maximized="1"
     showguides="false">
    <inkscape:grid
       type="xygrid"
       id="grid4858"
       originx="-23.176457"
       originy="-213.11045" />
  </sodipodi:namedview>
  <metadata
     id="metadata6352">
    <rdf:RDF>
      <cc:Work
         rdf:about="">
        <dc:format>image/svg+xml</dc:format>
        <dc:type
           rdf:resource="http://purl.org/dc/dcmitype/StillImage" />
        <dc:title></dc:title>
      </cc:Work>
    </rdf:RDF>
  </metadata>
  <g
     inkscape:label="Capa 1"
     inkscape:groupmode="layer"
     id="layer1"
     transform="translate(-141.72421,-536.86561)">
    <text
       transform="matrix(1.0008078,0,0,0.99919285,110.161,-369.35539)"
       sodipodi:linespacing="125%"
       id="text7778"
       y="993.69458"
       x="43.169815"
       style="font-style:normal;font-variant:normal;font-weight:normal;font-stretch:normal;font-size:100.08078003px;line-height:125%;font-family:'San Diego';-inkscape-font-specification:'San Diego';letter-spacing:0px;word-spacing:0px;fill:none;fill-opacity:1;stroke:#00aad4;stroke-width:3;stroke-linecap:butt;stroke-linejoin:miter;stroke-miterlimit:4;stroke-dasharray:none;stroke-opacity:1;filter:url(#filter7858)"
       xml:space="preserve"><tspan
         style="fill:none;fill-opacity:1;stroke:#00aad4;stroke-width:3;stroke-miterlimit:4;stroke-dasharray:none"
         id="tspan7780"
         y="993.69458"
         x="43.169815"
         sodipodi:role="line"><tspan
           dx="0 0 0 -10"
           id="tspan7782"
           style="fill:none;fill-opacity:1;stroke:#00aad4;stroke-width:3;stroke-miterlimit:4;stroke-dasharray:none"
           y="993.69458"
           x="43.169815">ENFASSE</tspan></tspan></text>
    <text
       xml:space="preserve"
       style="font-style:normal;font-variant:normal;font-weight:normal;font-stretch:normal;font-size:100.08078003px;line-height:125%;font-family:'San Diego';-inkscape-font-specification:'San Diego';letter-spacing:0px;word-spacing:0px;opacity:0.93599997;fill:none;fill-opacity:1;stroke:#e1dfe6;stroke-width:3;stroke-linecap:butt;stroke-linejoin:miter;stroke-miterlimit:4;stroke-dasharray:none;stroke-opacity:1;filter:url(#filter7858)"
       x="43.169815"
       y="993.69458"
       id="text7862"
       sodipodi:linespacing="125%"
       transform="matrix(1.0008078,0,0,0.99919285,110.161,-369.35539)"><tspan
         sodipodi:role="line"
         x="43.169815"
         y="993.69458"
         id="tspan7864"
         style="fill:none;fill-opacity:1;stroke:#e1dfe6;stroke-width:3;stroke-miterlimit:4;stroke-dasharray:none;stroke-opacity:1"><tspan
           x="43.169815"
           y="993.69458"
           style="fill:none;fill-opacity:1;stroke:#e1dfe6;stroke-width:3;stroke-miterlimit:4;stroke-dasharray:none;stroke-opacity:1"
           id="tspan7866"
           dx="0 0 0 -10">ENFASSE</tspan></tspan></text>
    <text
       transform="matrix(1.0008078,0,0,0.99919285,110.161,-369.35539)"
       sodipodi:linespacing="125%"
       id="text7868"
       y="993.69458"
       x="43.169815"
       style="font-style:normal;font-variant:normal;font-weight:normal;font-stretch:normal;font-size:100.08078003px;line-height:125%;font-family:'San Diego';-inkscape-font-specification:'San Diego';letter-spacing:0px;word-spacing:0px;opacity:0.925;fill:none;fill-opacity:1;stroke:#baceed;stroke-width:3;stroke-linecap:butt;stroke-linejoin:miter;stroke-miterlimit:4;stroke-dasharray:none;stroke-opacity:1;filter:url(#filter7882)"
       xml:space="preserve"><tspan
         style="fill:none;fill-opacity:1;stroke:#baceed;stroke-width:3;stroke-miterlimit:4;stroke-dasharray:none;stroke-opacity:1"
         id="tspan7870"
         y="993.69458"
         x="43.169815"
         sodipodi:role="line"><tspan
           dx="0 0 0 -10"
           id="tspan7872"
           style="fill:none;fill-opacity:1;stroke:#baceed;stroke-width:3;stroke-miterlimit:4;stroke-dasharray:none;stroke-opacity:1"
           y="993.69458"
           x="43.169815">ENFASSE</tspan></tspan></text>
    <text
       xml:space="preserve"
       style="font-style:normal;font-variant:normal;font-weight:normal;font-stretch:normal;font-size:100.08078003px;line-height:125%;font-family:'San Diego';-inkscape-font-specification:'San Diego';letter-spacing:0px;word-spacing:0px;opacity:0.925;fill:none;fill-opacity:1;stroke:#e2dde1;stroke-width:3;stroke-linecap:butt;stroke-linejoin:miter;stroke-miterlimit:4;stroke-dasharray:none;stroke-opacity:1;filter:url(#filter4410)"
       x="43.169815"
       y="993.69458"
       id="text4388"
       sodipodi:linespacing="125%"
       transform="matrix(1.0008078,0,0,0.99919285,110.16103,-369.35539)"><tspan
         sodipodi:role="line"
         x="43.169815"
         y="993.69458"
         id="tspan4390"
         style="fill:none;fill-opacity:1;stroke:#e2dde1;stroke-width:3;stroke-miterlimit:4;stroke-dasharray:none;stroke-opacity:1"><tspan
           x="43.169815"
           y="993.69458"
           style="fill:none;fill-opacity:1;stroke:#e2dde1;stroke-width:3;stroke-miterlimit:4;stroke-dasharray:none;stroke-opacity:1"
           id="tspan4392"
           dx="0 0 0 -10">ENFASSE</tspan></tspan></text>
    <path
       style="font-style:normal;font-variant:normal;font-weight:normal;font-stretch:normal;font-size:100.08078003px;line-height:125%;font-family:'San Diego';-inkscape-font-specification:'San Diego';letter-spacing:0px;word-spacing:0px;fill:url(#linearGradient4848-3);fill-opacity:1;stroke:none;stroke-width:3;stroke-linecap:butt;stroke-linejoin:miter;stroke-miterlimit:4;stroke-dasharray:none;stroke-opacity:1"
       d="m 319.81641,-228.76172 c -5.67322,0 -10.46634,2.01823 -14.37891,6.05469 -0.92008,0.95719 -1.72385,1.97179 -2.42578,3.03515 l 0.375,1.2461 1.64062,-0.125 1.26368,-0.88477 0.63086,0.50586 -0.12696,1.64063 -1.38867,0.88476 -1.89453,0.50391 -0.88281,-0.125 -0.0488,-2.9668 c -1.97125,3.26358 -2.96289,7.00378 -2.96289,11.22657 l 0,0.0195 0.0664,-0.0918 1.38868,0.25195 0.50585,0.75782 0.12696,1.64062 -0.12696,1.76758 -1.78906,-0.89453 c 0.36979,3.7048 1.35225,6.90401 2.95899,9.58593 0.32168,0.52867 0.6818,1.03979 1.06054,1.54297 l 0.37891,0 0.89453,-0.53711 -0.17969,0.80469 -0.76172,0.15235 c 1.79067,2.24951 4.16319,4.24023 7.125,5.96679 l 0.24415,-0.67383 0.71484,-1.25 0.98242,1.16211 -0.89453,0.71289 0,0.63086 c 0.17118,0.092 0.33495,0.18699 0.50977,0.27735 l 11.88476,6.20117 c 2.57577,1.33463 4.41876,2.76692 5.52735,4.29687 1.14116,1.4974 1.71093,3.28777 1.71093,5.3711 0,3.74349 -2.23238,6.05468 -6.69922,6.93359 -0.55428,0.0977 -0.83203,0.53711 -0.83203,1.31836 l 0,3.56445 c 0,0.42318 0.14602,0.78125 0.43946,1.07422 0.29344,0.29297 0.65231,0.43946 1.07617,0.43946 6.2275,0 11.23348,-2.05079 15.01562,-6.15235 0.61205,-0.65808 1.16981,-1.35692 1.6836,-2.08789 l -0.58399,-0.52734 -0.89258,0.35742 0,1.16016 -0.44531,0.0898 -0.17969,-1.60742 1.51758,-1.16016 1.13086,0.86719 c 2.3242,-3.68675 3.49024,-8.23203 3.49024,-13.64453 0,-2.39741 -0.32208,-4.65518 -0.95899,-6.77735 l -0.71484,-0.0879 -1.25,-1.16211 -0.625,-1.25 1.16015,0.17969 0.86719,0.69336 c -2.15958,-5.51914 -6.62083,-10.04286 -13.39453,-13.56836 l -11.3457,-5.9082 c -0.40621,-0.21837 -0.77242,-0.44167 -1.13672,-0.66602 l 0.0254,0.33789 -0.12695,1.76758 -2.01954,-1.00976 1.26172,-0.37891 0.25391,-0.88281 -0.0977,-0.29102 c -0.26486,-0.17994 -0.5288,-0.35932 -0.76757,-0.54297 l -0.39844,-0.0508 -0.75782,-0.37891 0.24805,-0.34765 c -0.42831,-0.39889 -0.81876,-0.8033 -1.13086,-1.21875 -0.94553,-1.33464 -1.41797,-2.92969 -1.41797,-4.78516 0,-0.98791 0.18011,-1.88385 0.52735,-2.69336 l -0.3711,0.24805 -0.5039,-0.88477 0.3789,-0.88281 1.64063,-0.3789 0.50586,-1.64258 -0.27344,1.55273 c 1.11963,-1.12228 2.5842,-1.82827 4.4043,-2.10547 0.45647,-0.13021 0.68359,-0.50455 0.68359,-1.12304 l 0,-3.56446 c 0,-1.00911 -0.50488,-1.51367 -1.51562,-1.51367 z m 8.02148,0 c -0.42385,0 -0.78273,0.14648 -1.07617,0.43945 -0.29344,0.29297 -0.44141,0.65104 -0.44141,1.07422 l 0,3.56446 c 0,0.65104 0.3751,1.0905 1.125,1.31836 l 2.69141,0.68359 c 2.0867,0.52083 3.7493,1.92058 4.98828,4.19922 0.22667,0.40618 0.44414,0.86125 0.65625,1.33984 l 0.96289,-0.0976 -0.37891,-0.63086 -0.125,-1.51563 1.38868,-0.88281 1.38867,0.50391 -0.50586,2.40039 -0.75781,-0.75782 -0.37891,0.50391 -0.25195,0.88476 0,1.64063 -0.12696,-1.13672 -0.6875,0.39453 c 0.74977,2.02952 1.39972,4.55701 1.94532,7.60742 0.0978,0.78125 0.5722,1.17188 1.41992,1.17188 l 3.4707,0 c 0.42386,0 0.78273,-0.14648 1.07617,-0.43945 0.29345,-0.29297 0.44141,-0.63476 0.44141,-1.02539 l 0,-17.72461 c 0,-0.42317 -0.14796,-0.78125 -0.44141,-1.07422 -0.29344,-0.29296 -0.65231,-0.43946 -1.07617,-0.43946 l -6.40625,0 c -2.54316,-1.33463 -5.50949,-2.00195 -8.90039,-2.00195 z m 51.05859,0 c -5.67322,0 -10.46634,2.01823 -14.3789,6.05469 -3.66248,3.81019 -5.57397,8.47234 -5.7793,13.96484 0.67375,-0.14279 1.58594,-0.42578 1.58594,-0.42578 l 0.25195,-1.13476 0.63281,-0.75782 0.75782,0.63086 -0.37891,1.38867 0.63086,0.50586 -3.48437,-0.10937 c -0.01,0.29408 -0.0371,0.58002 -0.0371,0.87891 0,5.20834 1.04415,9.55403 3.13085,13.0371 1.99537,3.27938 5.10301,6.06111 9.29493,8.35938 l -0.0605,-0.12109 -0.26758,-1.42774 0.35742,-0.98242 0.71485,-1.25 0.98242,1.16016 -0.89258,0.71484 0,0.80273 c 0,0.44642 0.26758,0.44754 0.26758,0.80469 0,0.18575 -0.0711,0.52646 -0.14063,0.82422 l 9.28516,4.84375 0.38477,-0.11523 0.2539,-0.88282 -0.2539,-0.75781 -1.00977,-0.12695 -0.75781,-0.37891 0.63086,-0.88281 1.39062,0.25195 0.50391,0.75781 0.12695,1.64063 -0.0801,1.11523 1.22852,0.64063 c 2.57577,1.33463 4.41878,2.76692 5.52734,4.29687 1.14116,1.4974 1.71132,3.28777 1.71094,5.3711 0,1.88022 -0.56433,3.39906 -1.69141,4.55664 l 0.41211,0.62109 0.12696,1.64063 -0.12696,1.76757 -2.01953,-1.00976 1.26172,-0.37891 0.25391,-0.88281 -0.25391,-0.75781 -0.76953,-0.0977 c -1.02107,0.66883 -2.31524,1.16386 -3.89453,1.47461 -0.55428,0.0977 -0.83012,0.53711 -0.83008,1.31836 l 0,3.56445 c 0,0.42318 0.146,0.78125 0.43945,1.07422 0.29344,0.29297 0.65232,0.43946 1.07618,0.43946 6.22749,0 11.23152,-2.05079 15.01367,-6.15235 0.94468,-1.0157 1.77164,-2.11921 2.48242,-3.30859 l -0.81836,-0.73438 -0.89258,0.35743 0,1.16015 -0.44531,0.0898 -0.17969,-1.60743 1.51758,-1.16211 1.16211,0.89454 -0.17773,0.71093 c 2.04664,-3.55915 3.07421,-7.87468 3.07421,-12.95312 0,-3.19868 -0.58102,-6.14674 -1.71484,-8.85547 l -0.64648,-0.59961 -0.625,-1.25 0.42382,0.0644 c -2.41134,-4.51473 -6.52005,-8.29589 -12.35351,-11.33203 l -11.34766,-5.9082 c -0.33793,-0.18167 -0.63648,-0.36888 -0.94531,-0.55469 -0.005,1.18189 -0.51953,1.8125 -0.51953,1.8125 l -3.0293,-3.15625 c -0.18681,-0.19459 -0.21913,-0.98145 -0.21094,-1.85937 -0.90234,-1.31553 -1.35937,-2.87693 -1.35937,-4.68946 0,-1.79037 0.57173,-3.28782 1.71289,-4.49218 1.14117,-1.23699 2.67398,-2.00196 4.59766,-2.29493 0.45646,-0.13021 0.68359,-0.50455 0.68359,-1.12304 l 0,-3.56446 c 0,-1.00911 -0.50489,-1.51367 -1.51563,-1.51367 z m 8.02149,0 c -0.42386,0 -0.78273,0.14648 -1.07617,0.43945 -0.29344,0.29297 -0.44141,0.65104 -0.44141,1.07422 l 0,3.56446 c 0,0.65104 0.3751,1.0905 1.125,1.31836 l 2.68945,0.68359 c 2.0867,0.52083 3.75126,1.92058 4.99024,4.19922 1.27158,2.27865 2.31378,5.69661 3.1289,10.2539 0.0978,0.78125 0.57024,1.17188 1.41797,1.17188 l 3.47266,0 c 0.42386,0 0.78273,-0.14648 1.07617,-0.43945 0.29345,-0.29297 0.43945,-0.63476 0.43945,-1.02539 l 0,-7.39063 -0.83203,-0.15039 0.83203,-0.39258 0,-8.6914 -0.65429,0.73632 -2.27344,-0.25195 2.92773,-1.41016 0,-0.17382 c 0,-0.42317 -0.146,-0.78125 -0.43945,-1.07422 -0.29344,-0.29296 -0.65231,-0.43946 -1.07617,-0.43946 l -6.40625,0 c -2.54317,-1.33463 -5.5095,-2.00195 -8.90039,-2.00195 z m -345.595704,2.00195 c -0.39126,0 -0.733904,0.1465 -1.027344,0.43946 -0.29345,0.29297 -0.439453,0.65105 -0.439453,1.07422 l 0,2.49023 c 0,0.61849 0.25958,1.05794 0.78125,1.31836 l 4.207031,2.19727 0,8.33398 0.693359,-1.00195 1.640625,0.88476 -0.251953,1.51367 -1.388672,0.63282 -0.693359,-0.84766 0,31.3457 1.148438,-0.0879 1.261718,-0.88281 0.63086,0.50391 -0.125,1.64258 -1.390625,0.88281 -1.525391,0.4082 0,9.65039 -4.207031,2.19727 c -0.52167,0.26042 -0.78125,0.69987 -0.78125,1.31836 l 0,2.49023 c 0,0.42317 0.146003,0.78125 0.439453,1.07422 0.29344,0.29296 0.636084,0.43945 1.027344,0.43945 l 20.050781,0 c 1.01075,0 1.517578,-0.50456 1.517578,-1.51367 l 0,-22.41211 -2.660156,-2.77148 c -0.52467,-0.54653 0,-5.42969 0,-5.42969 0.50508,0.63134 1.89278,-1.13594 2.65039,-0.63086 0.0034,0.002 0.0064,0.006 0.0098,0.008 l 0,-33.7539 c 0,-1.00911 -0.506828,-1.51368 -1.517578,-1.51368 l -20.050781,0 z m 28.072265,0 c -0.42386,0 -0.782722,0.1465 -1.076172,0.43946 -0.29344,0.29297 -0.439453,0.65105 -0.439453,1.07422 l 0,3.61328 c 0,0.55339 0.25958,0.99284 0.78125,1.31836 l 2.740235,0.58593 c 3.91256,0.84636 6.667995,1.61134 8.265625,2.29493 1.59763,0.65104 2.933805,1.48111 4.009765,2.49023 1.23898,1.17187 2.264968,2.34376 3.080078,3.51563 0.84773,1.17188 2.137185,3.46679 3.865235,6.88476 0.26084,0.52083 0.684604,0.78125 1.271484,0.78125 l 2.494141,0 c 0.42387,0 0.782722,-0.14649 1.076172,-0.43945 0.29344,-0.29297 0.439453,-0.63476 0.439453,-1.02539 l 0,-1.52539 -0.34961,-0.0781 -2.52539,-1.26172 2.875,-0.95898 0,-5.5 -2.265625,-0.2832 1.257812,-3.45704 -0.314453,-2.82812 1.322266,-0.88086 0,-3.24609 c 0,-0.42317 -0.146013,-0.78125 -0.439453,-1.07422 -0.29345,-0.29296 -0.652302,-0.43946 -1.076172,-0.43946 l -24.992188,0 z m 39.027349,0 c -0.39128,0 -0.73391,0.1465 -1.02735,0.43946 -0.29345,0.29297 -0.43945,0.65105 -0.43945,1.07422 l 0,2.49023 c 0,0.61849 0.26152,1.05794 0.7832,1.31836 l 4.20508,2.19727 15.30664,25.71875 1.07422,0.2539 0.3789,-0.75781 c 0,0 1.00861,-0.63154 1.51368,-0.75781 0.50508,-0.12627 1.89453,0.63086 1.89453,0.63086 l -1.26172,1.51562 -1.76758,-0.12695 -1.10742,0.46094 19.91601,33.46289 c 0.97814,1.39974 2.0872,2.09961 3.32618,2.09961 l 7.67773,0 c 0.42386,0 0.78273,-0.14649 1.07617,-0.43946 0.29345,-0.29297 0.43946,-0.65104 0.43946,-1.07422 l 0,-13.52539 c 0,-1.04167 -0.35888,-2.13216 -1.07618,-3.27148 l -3.12695,-5.22852 -0.70703,0.38086 -1.13477,-0.25195 -2.52539,-1.26367 3.0293,-1.00977 0.0703,0.0234 -18.34179,-30.66992 -0.63282,0.79297 -1.26172,-0.37891 -0.50585,-1.01172 2.10156,0.0957 -6.74805,-11.2832 c -0.78252,-1.26953 -1.81045,-1.9043 -3.08203,-1.9043 l -18.04687,0 z m 39.46874,0 c -0.39125,0 -0.73389,0.1465 -1.02734,0.43946 -0.29344,0.29297 -0.43945,0.65105 -0.43945,1.07422 l 0,2.49023 c 0,0.61849 0.25957,1.05794 0.78125,1.31836 l 4.20703,2.19727 0,19.48242 c 0,1.30209 0.29398,2.40883 0.88086,3.32031 l 6.01562,9.86328 c 0.26083,0.48828 0.66838,0.66732 1.22266,0.53711 0.58689,-0.16276 0.87891,-0.53711 0.87891,-1.12305 l 0,-17.76172 -1.75,-3.07421 1.75,0 0,-11.24414 4.20703,-2.19727 c 0.52167,-0.26042 0.78125,-0.69987 0.78125,-1.31836 l 0,-2.49023 c 0,-0.42317 -0.14602,-0.78125 -0.43946,-1.07422 -0.29345,-0.29296 -0.63609,-0.43946 -1.02734,-0.43946 l -16.04102,0 z m 29.00196,0 c -0.39126,0 -0.73391,0.1465 -1.02735,0.43946 -0.29345,0.29297 -0.43945,0.65105 -0.43945,1.07422 l 0,2.49023 c 0,0.61849 0.25958,1.05794 0.78125,1.31836 l 4.20703,2.19727 0,21.53515 c 0.53348,-0.31492 1.11536,-0.68937 1.51953,-0.41992 0.75762,0.50508 1.13642,1.89405 0,2.52539 -0.62954,0.34975 -1.17378,0.24093 -1.51953,0.2832 l 0,2.93946 c 0.0981,0.25147 0.21486,0.43945 0.38282,0.43945 0.50508,0 -2.9e-4,-4.03964 1.38867,-1.26172 1.38896,2.77792 0.12695,4.29297 0.12695,4.29297 l -1.89844,-1.97656 0,24.62109 -4.20703,2.19727 c -0.52167,0.26042 -0.78125,0.69987 -0.78125,1.31836 l 0,2.49023 c 0,0.42317 0.146,0.78125 0.43945,1.07422 0.29344,0.29296 0.63609,0.43945 1.02735,0.43945 l 25.04101,0 c 0.42386,0 0.78078,-0.14649 1.07422,-0.43945 0.29345,-0.29297 0.44141,-0.65105 0.44141,-1.07422 l 0,-2.49023 c 0,-0.61849 -0.26153,-1.05794 -0.7832,-1.31836 l -4.20508,-2.19727 0,-58.98437 c 0,-1.00911 -0.50683,-1.51368 -1.51758,-1.51368 l -20.05078,0 z m 28.07226,0 c -0.42387,0 -0.78272,0.1465 -1.07617,0.43946 -0.29344,0.29297 -0.43945,0.65105 -0.43945,1.07422 l 0,3.61328 c 0,0.55339 0.25958,0.99284 0.78125,1.31836 l 2.74023,0.58593 c 3.91257,0.84636 6.668,1.61134 8.26563,2.29493 1.59763,0.65104 2.9338,1.48111 4.00976,2.49023 1.23897,1.17187 2.26497,2.34376 3.08008,3.51563 0.84773,1.17188 2.13719,3.46679 3.86524,6.88476 0.26084,0.52083 0.6846,0.78125 1.27148,0.78125 l 2.49414,0 c 0.42386,0 0.78273,-0.14649 1.07617,-0.43945 0.29345,-0.29297 0.43946,-0.63476 0.43946,-1.02539 l 0,-20.01953 c 0,-0.42317 -0.14601,-0.78125 -0.43946,-1.07422 -0.29344,-0.29296 -0.65231,-0.43946 -1.07617,-0.43946 l -24.99219,0 z m 48.7793,0 c -0.75031,0 -1.30332,0.29948 -1.66602,0.88868 l 1.93165,-0.35157 2.05273,-0.0879 1.96484,0.53516 0.44727,0.44727 -0.17969,0.89257 0.98242,0.53516 2.14258,0.44727 0.17969,0.71289 c 0,0 -1.07227,-0.26758 -1.69727,-0.26758 -0.625,0 -1.33845,0.17909 -2.05273,0.0898 -0.71429,-0.0893 -0.89258,-0.625 -1.51758,-0.625 -0.625,0 -1.60742,-0.71484 -1.60742,-0.71484 0,0 -0.53599,-0.89258 -0.98242,-0.89258 -0.44643,0 -0.98242,-0.26758 -0.98242,-0.26758 l -1.33985,1.69531 0.59961,-2.05468 c -0.1152,0.20918 -0.21015,0.45049 -0.28125,0.72656 l -1.07617,3.71094 16.1875,55.07812 -4.20508,2.19727 c -0.52167,0.26042 -0.7832,0.69987 -0.7832,1.31836 l 0,2.49023 c 0,0.42317 0.14795,0.78125 0.4414,1.07422 0.29344,0.29296 0.65035,0.43945 1.07422,0.43945 l 25.72657,0 c 0.39125,0 0.7339,-0.14649 1.02734,-0.43945 0.32605,-0.32552 0.48827,-0.6836 0.48828,-1.07422 l 0,-2.49023 c 0,-0.61849 -0.27775,-1.05794 -0.83203,-1.31836 l -4.20508,-2.19727 -2.02344,-6.91016 -0.4414,0.34376 -0.26758,0.89257 -0.53711,-1.42968 0,-1.33789 c 0,-0.44643 0.17969,-0.98243 0.17969,-0.98243 l 0.3789,0.16993 -8.51562,-29.08204 -0.15625,1.01172 -0.63086,0.125 0.12695,-2.01953 -0.3789,-0.75781 -0.75782,0 -1.13671,-0.50586 0.25195,-1.00977 1.51562,0 0.31446,0.24414 -5.13672,-17.54101 c -0.29344,-1.13933 -0.96251,-1.70899 -2.00586,-1.70899 l -12.61719,0 z m 166.52148,0 0.10547,1.35743 -0.2539,1.64257 -0.63086,0.125 0.12695,-2.01953 -0.3789,-0.75781 -0.75782,0 -0.62695,-0.2793 c -0.22113,0.0687 -0.42598,0.188 -0.60938,0.3711 -0.29345,0.29297 -0.4414,0.65105 -0.4414,1.07422 l 0,2.49023 c 0,0.61849 0.26153,1.05794 0.7832,1.31836 l 3.86133,2.01758 -0.12109,-0.54102 1.13671,-0.63086 1.13672,0.88477 c 0,0 -0.50468,0.75781 -1.00976,0.75781 -0.33581,0 -0.61146,0.0466 -0.79883,0.084 l 0,20.43359 0.67187,-0.375 1.13672,0.88476 c 0,0 -0.50468,0.75782 -1.00976,0.75782 -0.33581,0 -0.61146,0.0466 -0.79883,0.084 l 0,16.43555 0.99414,-0.5957 1.51563,-0.50391 1.00976,1.13672 -0.63086,1.38867 -1.00976,0.125 -0.50586,1.13672 -0.12696,2.52539 -0.125,1.51562 0.50391,1.00977 0.63281,0.37891 0.125,1.00976 -0.5039,1.01172 0.5039,1.13477 1.01172,0.50586 0.37695,1.13671 -1.38867,1.00977 -1.38867,0.75781 -0.52344,-2.85156 -0.4707,0.14062 0,2.41016 -4.20508,2.19727 c -0.52167,0.26042 -0.7832,0.69987 -0.7832,1.31836 l 0,2.49023 c 0,0.42317 0.14795,0.78125 0.4414,1.07422 0.29344,0.29296 0.63479,0.43945 1.02539,0.43945 l 20.05274,0 c 1.01075,0 1.51562,-0.50456 1.51562,-1.51367 l 0,-64.99023 c 0,-0.74564 -0.27642,-1.21547 -0.82812,-1.41016 l -0.55859,0.62891 -2.27344,-0.25196 0.99805,-0.48047 -16.90626,0 z m 26.07422,0 c -0.22022,0 -0.42235,0.042 -0.60742,0.1211 l -0.0723,0.56836 -0.75782,0.50586 -0.0312,-0.0566 c -0.0288,0.11956 -0.0488,0.24271 -0.0488,0.375 l 0,3.61328 c 0,0.55339 0.26153,0.99284 0.7832,1.31836 l 2.73828,0.58593 c 3.91257,0.84636 6.66798,1.61134 8.26563,2.29493 1.59762,0.65104 2.93379,1.48111 4.00976,2.49023 1.23896,1.17187 2.26692,2.34376 3.08203,3.51563 0.84773,1.17188 2.13523,3.46679 3.86328,6.88476 0.26083,0.52083 0.6846,0.78125 1.27149,0.78125 l 2.49414,0 c 0.42386,0 0.78273,-0.14649 1.07617,-0.43945 0.29344,-0.29297 0.44141,-0.63476 0.44141,-1.02539 l 0,-11.65625 -1.3711,0.36523 -0.88281,-0.12695 -0.12695,-7.70117 0.88476,0.88281 0,1.51562 -0.3789,1.64063 0.3789,1.26367 1.4961,-0.11523 0,-2.40625 -0.625,0.41797 -0.50586,-0.88477 0.3789,-0.88281 0.75196,-0.17383 0,-2.1582 c 0,-0.42317 -0.14797,-0.78125 -0.44141,-1.07422 -0.29344,-0.29296 -0.65231,-0.43946 -1.07617,-0.43946 l -24.99024,0 z m -66.95898,0.9961 -0.50586,1.13672 -2.01953,0 2.52539,-1.13672 z m 53.87305,2.58008 -0.12696,1.26171 -1.00976,-0.125 -0.12696,-0.88476 1.26368,-0.25195 z m 5.02734,3.02539 -0.12695,0.88281 1.38867,0.12695 -0.25195,0.75782 -0.88477,-0.37891 -1.13672,0.63086 -0.75586,-0.50586 1.76758,-1.51367 z m -122.64844,0.38086 -0.25195,0.043 -0.0488,0.38477 c 0.0939,-0.14546 0.19353,-0.28913 0.30078,-0.42773 z m 144.60742,0.45703 1.51563,0.50586 0.75781,1.13476 -1.64258,0.88477 -1.13671,-0.25196 -2.5254,-1.26367 3.03125,-1.00976 z m -374.449214,3.52148 2.779296,0.125 -1.009765,1.26367 -1.263672,-0.3789 -0.505859,-1.00977 z m 35.283204,1.27539 0.75781,0.75782 -0.75781,1.26367 -1.38867,-1.00977 1.38867,-1.01172 z M 185,-212.80664 c 0.60422,0.0604 1.66797,0.64062 1.66797,0.64062 l -0.49024,0.5879 0.86719,0 1.13672,0.63085 0.37891,1.38868 c 0,0 -6.9e-4,1.6414 -0.12696,2.14648 -0.068,0.27219 -0.0934,0.76295 -0.0684,1.25781 l 1.58399,2.78321 c 0,0 -1.13613,-1.00928 -1.38867,-1.64063 -0.11644,-0.2911 -0.17388,-0.71918 -0.19532,-1.14258 l -2.72265,-4.78125 -0.23828,0.28516 -1.76758,-0.12695 -1.51563,0.63281 -1.38867,-1.64258 2.14649,0.50586 0.3789,-0.75781 c 0,0 1.01056,-0.63149 1.51563,-0.75782 0.0631,-0.0158 0.14024,-0.0184 0.22656,-0.01 z m 63.11914,2.16016 c -0.39126,-0.0326 -0.65278,0.19531 -0.7832,0.68359 l -2.16602,7.38867 0,0.0137 -0.0879,3.66016 -0.44726,2.14258 0,-3.99219 -8.6836,29.62109 0.85547,-0.19726 0.50586,-1.64258 -0.37891,2.14648 -0.75781,0.12696 -0.12695,1.00976 -0.64844,0.4336 -0.87695,2.99023 -4.20703,2.19727 c -0.55428,0.26042 -0.83204,0.69987 -0.83203,1.31836 l 0,2.49023 c 0,0.39062 0.14796,0.7487 0.4414,1.07422 0.32605,0.29296 0.68491,0.43945 1.07617,0.43945 l 0.21094,0 -1.46875,-2.57812 1.76758,0 1.13672,0.63086 0.3789,1.38867 c 0,0 -0.006,0.31883 -0.01,0.55859 l 13.53711,0 c 0.39126,0 0.73195,-0.14649 1.02539,-0.43945 0.29344,-0.29297 0.4414,-0.65105 0.4414,-1.07422 l 0,-2.49023 c 0,-0.61849 -0.26152,-1.05794 -0.7832,-1.31836 l -4.20508,-2.19727 2.98242,-10.20508 11.34571,0 c 0.35865,0 0.6364,-0.1302 0.83203,-0.39062 0.19563,-0.29296 0.24429,-0.63476 0.14648,-1.02539 l -1.36914,-4.49219 c -0.32604,-0.84637 -0.89582,-1.26953 -1.71093,-1.26953 l -2.58985,0 c -3e-5,2.5e-4 0,0.0117 0,0.0117 l -0.53515,0.71484 1.25,0.35742 -3.125,-0.26757 0.34961,-0.81641 -2.49024,0 3.81445,-13.08594 c 0.26083,-0.94401 0.26083,-1.80664 0,-2.58789 l -3.08203,-10.54687 c -0.16302,-0.48828 -0.40639,-0.7487 -0.73242,-0.78125 z m 127.95508,0.96875 c 0.10415,0.3315 0.23114,0.58007 0.42773,0.58007 0.0461,0 0.0818,-0.0426 0.11328,-0.10156 -0.19453,-0.15721 -0.36524,-0.31862 -0.54101,-0.47851 z m -297.289064,2.74218 c -0.7173,0 -1.141064,0.26042 -1.271484,0.78125 l -1.027344,3.41797 c -0.42386,1.49739 -1.157822,2.7832 -2.201172,3.85742 -0.599958,0.61832 -1.251397,1.09495 -1.943359,1.46094 l 0,2.06055 -1.263672,-0.63086 -0.398437,-0.79883 -2.019532,0.44727 c -0.52167,0.26042 -0.78125,0.69987 -0.78125,1.31836 l 0,3.56445 c 0,0.61849 0.25958,1.05794 0.78125,1.31836 l 2.201172,0.48828 c 0.852817,0.19648 1.641367,0.58492 2.376953,1.13281 l 0.771485,-0.34765 -0.316407,0.71093 c 0.200482,0.1752 0.400663,0.35155 0.591797,0.55469 1.04335,1.07422 1.777312,2.36002 2.201172,3.85742 l 1.027344,3.36914 c 0.13042,0.55339 0.554184,0.83008 1.271484,0.83008 l 2.494141,0 c 0.39126,0 0.733894,-0.14648 1.027344,-0.43945 0.32604,-0.32552 0.488281,-0.6836 0.488281,-1.07422 l 0,-19.36524 -1.617188,0 1.617188,-0.99414 0,-4.00586 c 0,-0.42318 -0.146003,-0.78124 -0.439453,-1.07421 -0.29344,-0.29297 -0.652312,-0.43946 -1.076172,-0.43946 l -2.494141,0 z m 135.570314,0 c -0.7173,0 -1.14107,0.26042 -1.27149,0.78125 l -1.02734,3.41797 c -0.42386,1.49739 -1.15782,2.7832 -2.20117,3.85742 -1.01074,1.04167 -2.15225,1.72527 -3.42383,2.05079 l -2.20117,0.48828 c -0.52167,0.26042 -0.78125,0.69987 -0.78125,1.31836 l 0,3.56445 c 0,0.61849 0.25958,1.05794 0.78125,1.31836 l 2.20117,0.48828 c 1.27159,0.29296 2.41309,0.97656 3.42383,2.05078 1.04335,1.07422 1.7773,2.36002 2.20117,3.85742 l 1.02734,3.36914 c 0.13042,0.55339 0.55419,0.83008 1.27149,0.83008 l 2.49414,0 c 0.39126,0 0.73389,-0.14648 1.02734,-0.43945 0.32604,-0.32552 0.48828,-0.6836 0.48828,-1.07422 l 0,-11.53906 -0.35742,0.20312 -0.2539,0.63281 -0.88282,-0.63281 0.50391,-1.38867 0.99023,-0.0977 0,-0.48437 -0.10546,-0.17578 -0.12696,-1.51367 0.23242,-0.14844 0,-9.22071 c 0,-0.42318 -0.146,-0.78124 -0.43945,-1.07421 -0.29344,-0.29297 -0.65231,-0.43946 -1.07617,-0.43946 l -2.49414,0 z m 241.37305,0 c -0.71731,0 -1.14107,0.26042 -1.27149,0.78125 l -1.02734,3.41797 c -0.42386,1.49739 -1.15587,2.7832 -2.19922,3.85742 -1.01074,1.04167 -2.15239,1.72527 -3.42383,2.05079 l -0.16602,0.0371 0.98243,0.76368 c 0,0 -0.50469,0.75781 -1.00977,0.75781 -0.50508,0 -1.00976,0.12695 -1.00976,0.12695 l -0.25196,-1.13672 0.67383,-0.375 -1.41992,0.31446 c -0.52167,0.26042 -0.7832,0.69987 -0.7832,1.31836 l 0,0.79492 0.75,-0.87305 1.38867,0.63086 -0.12696,1.26172 -0.88476,0.63281 -1.12695,-0.6289 0,1.74609 c 0,0.61849 0.26153,1.05794 0.7832,1.31836 l 2.20117,0.48828 c 1.27158,0.29296 2.41309,0.97656 3.42383,2.05078 1.04335,1.07422 1.77536,2.36002 2.19922,3.85742 l 1.02734,3.36914 c 0.13042,0.55339 0.55418,0.83008 1.27149,0.83008 l 2.49414,0 c 0.39125,0 0.7339,-0.14648 1.02734,-0.43945 0.32605,-0.32552 0.49023,-0.6836 0.49023,-1.07422 l 0,-24.36524 c 0,-0.42318 -0.14796,-0.78124 -0.4414,-1.07421 -0.29344,-0.29297 -0.65231,-0.43946 -1.07617,-0.43946 l -2.49414,0 z m -156.08399,0.27735 c 0.022,0.73893 0.0648,1.46158 0.13086,2.16406 l 1.04492,-0.31445 0.25196,-0.88282 -0.25196,-0.75781 -1.00976,-0.12695 -0.16602,-0.082 z m -186.40234,0.35156 c -0.13245,-0.0204 -0.27124,-0.0188 -0.41797,0.006 -0.58688,0.0651 -0.88086,0.42318 -0.88086,1.07422 l 0,11.44336 0.69726,-0.61133 0.12696,0.50586 0,2.85742 0.96875,0 1.13672,0.88477 0.12695,1.64062 -0.25391,1.64258 -0.63086,0.125 0.12696,-2.01953 -0.37891,-0.75781 -0.75781,0 -1.13672,-0.50586 0.25195,-1.00977 0.19922,0 -0.47656,-0.23828 0,25.00781 -4.20508,2.19727 c -0.52168,0.26042 -0.7832,0.69987 -0.7832,1.31836 l 0,2.49023 c 0,0.42317 0.146,0.78125 0.43945,1.07422 0.29344,0.29296 0.63602,0.43945 1.02735,0.43945 l 16.04296,0 c 0.39126,0 0.73195,-0.14649 1.02539,-0.43945 0.29344,-0.29297 0.44141,-0.65105 0.44141,-1.07422 l 0,-2.49023 c 0,-0.61849 -0.26152,-1.05794 -0.7832,-1.31836 l -4.20508,-2.19727 0,-26.07422 c 0,-0.87891 -0.0831,-1.5625 -0.24609,-2.05078 -0.13042,-0.52084 -0.48733,-1.26952 -1.07422,-2.24609 l -0.77539,-1.2793 -0.94141,-0.11719 -0.125,-0.88476 0.41016,-0.082 -3.94922,-6.52344 c -0.26899,-0.46387 -0.60263,-0.72608 -1,-0.78711 z m 265.84179,2.50781 1.38868,0.50391 -0.50586,2.40039 -0.75782,-0.75781 -0.3789,0.5039 -0.25196,0.88477 0,1.64062 -0.125,-1.13672 -0.88476,0.50586 -0.25195,0.63086 -0.88477,-0.63086 0.50586,-1.38867 1.26172,-0.12695 -0.37891,-0.63086 -0.125,-1.51563 1.38867,-0.88281 z m -250.6582,1.91211 0.75781,0.63281 -0.3789,1.38868 0.63086,0.5039 -4.04102,-0.125 c 0.50507,0 2.14649,-0.50586 2.14649,-0.50586 l 0.25195,-1.13672 0.63281,-0.75781 z m 294.60742,0.57031 0.75782,0.63086 -0.125,1.13672 -1.26368,0.63086 0.63086,-2.39844 z m -340.738278,2.59375 -0.126953,0.75782 -1.009766,1.13672 -2.273437,-0.25196 3.410156,-1.64258 z m 355.591798,1.06055 c 0.60422,0.0604 1.66797,0.64063 1.66797,0.64063 l -1.26367,1.51562 -1.76758,-0.12695 -1.51367,0.63086 -1.39063,-1.64063 2.14648,0.50586 0.37891,-0.75781 c 0,0 1.01056,-0.63154 1.51563,-0.75781 0.0631,-0.0158 0.14024,-0.0184 0.22656,-0.01 z m -172.62695,1.08399 0,1.875 c 0,0.35715 -0.35743,1.07031 -0.35743,1.07031 l -0.0898,1.69726 -0.26758,1.33789 -1.07031,0.71485 -1.25,-0.17774 -0.53711,-0.44726 0.17969,-0.80274 1.33984,-1.25 0.53516,-1.51757 0.80273,-1.96485 0.71485,-0.53515 z m 105.80273,0.44531 0,0.98242 -0.53516,-0.0898 -0.26757,-0.625 0.80273,-0.26758 z m -6.33789,0.98242 -0.17969,0.80273 -0.89258,0.17969 -1.33984,-0.26758 0.44727,-0.17968 1.07226,0 0.89258,-0.53516 z m 8.21289,0.17773 0.80469,0.44727 -0.625,0.625 -0.17969,-1.07227 z m -61.51758,0.26954 0,0.98046 -0.53515,-0.0879 -0.26758,-0.625 0.80273,-0.26757 z m 56.78711,0.44531 1.07031,0.26758 -0.0898,0.80468 -0.98047,0 -0.98242,0.71289 0,-1.25 0.98242,-0.53515 z m -222.19922,0.043 -0.3789,0.88281 -1.64063,0.75781 -1.26367,0.88477 -1.38867,-0.25391 2.14648,-1.00976 1.76758,-1.13672 0.75781,-0.125 z m 59.65625,0.13086 0.75586,0.75781 -0.75586,1.26367 -1.39062,-1.01172 1.39062,-1.00976 z m 107.63086,0.54101 0.80469,0.44531 -0.625,0.625 -0.17969,-1.07031 z m -4.73242,0.71485 1.07227,0.26757 -0.0899,0.80274 -0.98242,0 -0.98047,0.71484 0,-1.25 0.98047,-0.53515 z m -94.90039,0.86914 -0.25195,1.26367 -1.38868,-0.37891 0.37891,-0.75781 1.26172,-0.12695 z m -79.44922,0.93359 -0.12695,0.75781 -1.00977,1.13672 -2.27344,-0.25195 3.41016,-1.64258 z m 52.71289,0.4375 -0.125,1.26172 -1.01172,-0.12695 -0.125,-0.88282 1.26172,-0.25195 z m -134.640624,0.79297 0,1.00976 -1.640625,0 1.640625,-1.00976 z m 333.406254,0.68554 1.51367,0 1.13672,0.88282 0.12695,1.64258 -0.25195,1.64062 -0.63282,0.12695 0.12696,-2.02148 -0.37891,-0.75781 -0.75781,0 -1.13672,-0.50391 0.25391,-1.00977 z m -322.800785,0.12696 c -0.0039,0.002 -0.0058,0.006 -0.0098,0.008 -1.13642,0.63135 -2.018848,-0.25292 -1.892578,1.00977 0.12627,1.26269 0.25079,2.65234 0.75586,2.65234 0.469964,0 0.08609,-3.42915 1.146484,-1.67773 l 0,-1.99219 z m 336.476565,1.68945 0.35742,0 0.80273,0.80274 -0.35742,0.71484 -1.25,0.44727 -0.26758,-1.07227 0.71485,-0.89258 z m -59.64258,1.42774 0.35742,0 0.80274,0.80468 -0.35743,0.71289 -1.25,0.44727 -0.26757,-1.07227 0.71484,-0.89257 z m 63.125,0.44726 0.625,0.71485 -0.80469,0.71289 -0.71289,-0.0879 0,-1.16211 0.89258,-0.17774 z m -59.64258,1.42774 0.625,0.71484 -0.80469,0.71484 -0.71484,-0.0898 0,-1.16016 0.89453,-0.17968 z m -41.0957,2.00585 c -0.39126,0 -0.74817,0.16277 -1.07422,0.48829 -0.29344,0.29297 -0.44141,0.63477 -0.44141,1.02539 l 0,20.21484 c 0,0.42317 0.14797,0.78125 0.44141,1.07422 0.29344,0.29296 0.65036,0.43945 1.07422,0.43945 l 6.4082,0 c 2.93443,1.33463 6.06495,2.00196 9.39063,2.00196 0.42386,0 0.78076,-0.14649 1.07422,-0.43946 0.29343,-0.29297 0.4414,-0.65104 0.4414,-1.07422 l 0,-3.56445 c 0,-0.65104 -0.35887,-1.0905 -1.07617,-1.31836 l -1.9082,-0.58594 c -4.46685,-1.39974 -7.61164,-7.08008 -9.4375,-17.04101 -0.0978,-0.81381 -0.55598,-1.22069 -1.3711,-1.22071 l -3.52148,0 z m 59.08008,0 c -0.39126,0 -0.75014,0.16277 -1.07618,0.48829 -0.29345,0.29297 -0.43945,0.63477 -0.43945,1.02539 l 0,20.21484 c 0,0.42317 0.146,0.78125 0.43945,1.07422 0.29344,0.29296 0.65232,0.43945 1.07618,0.43945 l 6.4082,0 c 2.93442,1.33463 6.06299,2.00196 9.38867,2.00196 0.42386,0 0.78272,-0.14649 1.07617,-0.43946 0.29344,-0.29297 0.44141,-0.65104 0.44141,-1.07422 l 0,-3.56445 c 0,-0.65104 -0.35887,-1.0905 -1.07617,-1.31836 l -1.90821,-0.58594 c -4.46685,-1.39974 -7.61358,-7.08008 -9.43945,-17.04101 -0.0978,-0.81381 -0.554,-1.22069 -1.36914,-1.22071 l -3.52148,0 z m -269.298832,0.19532 c -0.55428,0 -0.978044,0.2767 -1.271484,0.83008 -1.72805,3.41797 -3.017505,5.71288 -3.865235,6.88476 -0.81511,1.17187 -1.841098,2.34376 -3.080078,3.51563 -1.07596,1.00912 -2.412135,1.85546 -4.009765,2.53906 -1.59763,0.65104 -4.353065,1.39974 -8.265625,2.24609 l -2.740235,0.58594 c -0.52167,0.32551 -0.78125,0.76497 -0.78125,1.31836 l 0,3.61328 c 0,0.42317 0.146013,0.78125 0.439453,1.07422 0.29345,0.29296 0.652312,0.43945 1.076172,0.43945 l 24.992188,0 c 0.42387,0 0.782722,-0.14649 1.076172,-0.43945 0.29344,-0.29297 0.439453,-0.65105 0.439453,-1.07422 l 0,-20.01953 c 0,-0.39063 -0.162239,-0.73243 -0.488282,-1.02539 -0.29344,-0.32553 -0.636083,-0.48828 -1.027343,-0.48828 l -2.494141,0 z m 376.943362,0 c -0.55428,0 -0.97805,0.2767 -1.27149,0.83008 -1.72805,3.41797 -3.01555,5.71288 -3.86328,6.88476 -0.81511,1.17187 -1.84305,2.34376 -3.08203,3.51563 -1.07597,1.00912 -2.41213,1.85546 -4.00976,2.53906 -1.41932,0.57838 -3.80633,1.23817 -7.05274,1.9707 l -0.49219,2.16992 -1.64257,-1.13671 0.2207,-0.60743 -2.03711,0.43555 c -0.52167,0.32551 -0.7832,0.76497 -0.7832,1.31836 l 0,3.61328 c 0,0.42317 0.14796,0.78125 0.4414,1.07422 0.29345,0.29296 0.6523,0.43945 1.07617,0.43945 l 24.99024,0 c 0.42386,0 0.78273,-0.14649 1.07617,-0.43945 0.29344,-0.29297 0.44141,-0.65105 0.44141,-1.07422 l 0,-13.53516 -0.34961,0.4668 -0.25196,0.88281 0,1.64258 -0.12695,-1.13672 -0.88476,0.50391 -0.25196,0.63281 -0.88476,-0.63281 0.50586,-1.38867 1.26367,-0.12696 -0.37891,-0.63085 -0.12695,-1.51563 1.38867,-0.88281 0.0977,0.0352 0,-4.33398 c 0,-0.39063 -0.16419,-0.73243 -0.49024,-1.02539 -0.29344,-0.32553 -0.63608,-0.48828 -1.02734,-0.48828 l -2.49414,0 z m -67.23633,0.5664 0.98242,0.17969 c 0,0 0.5357,0.71373 0.625,1.16016 0.0893,0.44643 0.0879,0.62583 0.0879,1.07226 0,0.44642 -0.44531,1.25 -0.44531,1.25 l -0.35742,1.07032 -0.625,0.26757 0,-0.625 0.35742,-0.98046 -0.0898,-1.16211 -0.35743,-0.89258 -0.71484,-0.80274 0.53711,-0.53711 z m -210.34766,0.61719 c 0.11147,10e-4 0.21585,0.0287 0.31055,0.0918 0.75762,0.50508 1.13642,1.89405 0,2.52539 -1.13642,0.63135 -2.0208,-0.25293 -1.89453,1.00976 0.12627,1.26269 0.25274,2.65235 0.75781,2.65235 0.50508,0 -2.9e-4,-4.03964 1.38867,-1.26172 1.38896,2.77792 0.12696,4.29297 0.12696,4.29297 l -3.03125,-3.1582 c -0.52467,-0.54653 0,-5.42774 0,-5.42774 0.44194,0.55242 1.56149,-0.73324 2.34179,-0.72461 z m 150.70508,0.8125 0.98047,0.17774 c 0,0 0.5357,0.71568 0.625,1.16211 0.0893,0.44642 0.0898,0.62388 0.0898,1.07031 0,0.44642 -0.44531,1.25 -0.44531,1.25 l -0.35742,1.07226 -0.625,0.26758 0,-0.625 0.35742,-0.98242 -0.0898,-1.16016 -0.35742,-0.89257 -0.71485,-0.80469 0.53711,-0.53516 z m -286.119139,5.62891 0.757812,0.63086 -0.378906,1.38867 0.630859,0.50586 -4.041015,-0.12695 c 0.50507,0 2.146484,-0.50586 2.146484,-0.50586 l 0.253906,-1.13477 0.63086,-0.75781 z m 140.716799,1.18554 -0.125,1.26368 -1.00977,-0.12696 -0.12695,-0.88281 1.26172,-0.25391 z m -108.822268,1.25977 1.642578,0.88477 -0.253906,1.51562 -1.388672,0.63086 -1.136719,-1.38867 1.136719,-1.64258 z m 183.742188,0.67578 -0.25195,1.26172 -1.39063,-0.37891 0.37891,-0.75781 1.26367,-0.125 z m 195.41601,0.0449 -0.25195,1.26172 -1.38867,-0.3789 0.37891,-0.75586 1.26171,-0.12696 z m -310.01367,1.87305 2.77735,0.12695 -1.00977,1.26172 -1.26172,-0.3789 -0.50586,-1.00977 z m 35.28125,1.27734 0.75782,0.75782 -0.75782,1.26172 -1.38867,-1.00977 1.38867,-1.00977 z m -100.871091,0.91407 -0.378906,0.88476 -1.640625,0.75781 -1.263672,0.88282 -1.388672,-0.25196 2.146485,-1.00976 1.767578,-1.13672 0.757812,-0.12695 z m 67.326171,0.0664 -0.50586,1.13672 -2.01953,0 2.52539,-1.13672 z m -41.99219,1.63477 1.64258,0.88281 -0.2539,1.51563 -1.38868,0.63086 -1.13671,-1.38868 1.13671,-1.64062 z m 281.04883,0.5293 0.80469,0.625 0.17773,0.89257 -0.625,-0.17968 -0.17773,0.71484 -0.17969,-2.05273 z m 38.37696,0.61523 0.63085,0.125 0.50586,1.00977 -0.3789,1.39062 -0.25196,1.64062 0.88282,1.00977 -2.9043,-0.63086 1.51563,-0.75781 0.2539,-0.75781 0.125,-0.88282 -0.88281,-0.3789 -0.63281,0 -0.25196,-1.01172 1.38868,-0.75586 z m -98.01954,0.8125 0.80469,0.625 0.17774,0.89258 -0.625,-0.17774 -0.17774,0.71289 -0.17969,-2.05273 z m 28.30469,0.89258 0.44531,1.69726 -1.16015,-0.26757 0.71484,-1.42969 z m -59.64453,1.42969 0.44727,1.69531 -1.16016,-0.26758 0.71289,-1.42773 z"
       transform="translate(118.54775,782.28004)"
       id="text4766-4"
       inkscape:connector-curvature="0" />
  </g>
</svg>
